M48
; DRILL file KiCad 10.0.3 date 2026-05-17T11:35:10
; FORMAT={-:-/ absolute / metric / decimal}
; #@! TF.CreationDate,2026-05-17T11:35:10-05:00
; #@! TF.GenerationSoftware,Kicad,Pcbnew,10.0.3
; #@! TF.FileFunction,Plated,1,2,PTH
FMAT,2
METRIC
; #@! TA.AperFunction,Plated,PTH,ComponentDrill
T1C0.800
; #@! TA.AperFunction,Plated,PTH,ComponentDrill
T2C0.900
; #@! TA.AperFunction,Plated,PTH,ComponentDrill
T3C1.000
; #@! TA.AperFunction,Plated,PTH,ComponentDrill
T4C1.300
; #@! TA.AperFunction,Plated,PTH,ComponentDrill
T5C1.320
%
G90
G05
T1
X40.5Y-43.5
X45.5Y-43.5
X58.25Y-47.0
X58.25Y-52.0
X67.93Y-51.505
X67.93Y-53.505
X67.93Y-55.505
X67.93Y-57.505
X67.93Y-59.505
X67.93Y-61.505
X67.93Y-63.505
X67.93Y-65.505
X67.93Y-67.505
X67.93Y-69.505
X67.93Y-71.505
X67.93Y-73.505
X67.93Y-75.505
X67.93Y-77.505
X67.93Y-79.505
X110.0Y-92.141
X110.0Y-97.141
X114.0Y-41.5
X119.0Y-41.5
X120.93Y-51.005
X120.93Y-53.005
X120.93Y-55.005
X120.93Y-57.005
X120.93Y-59.005
X120.93Y-61.005
X120.93Y-63.005
X120.93Y-65.005
X120.93Y-67.005
X120.93Y-69.005
X120.93Y-71.005
X120.93Y-73.005
X120.93Y-75.005
X120.93Y-77.005
X120.93Y-79.005
T2
X74.57Y-46.505
X74.57Y-49.045
X74.57Y-51.585
X74.57Y-54.125
X74.57Y-56.665
X74.57Y-59.205
X74.57Y-61.745
X74.57Y-64.285
X74.57Y-66.825
X74.57Y-69.365
X74.57Y-71.905
X74.57Y-74.445
X74.57Y-76.985
X74.57Y-79.525
X74.57Y-82.065
X97.43Y-46.505
X97.43Y-49.045
X97.43Y-51.585
X97.43Y-54.125
X97.43Y-56.665
X97.43Y-59.205
X97.43Y-61.745
X97.43Y-64.285
X97.43Y-66.825
X97.43Y-69.365
X97.43Y-71.905
X97.43Y-74.445
X97.43Y-76.985
X97.43Y-79.525
X97.43Y-82.065
X127.07Y-47.005
X127.07Y-49.545
X127.07Y-52.085
X127.07Y-54.625
X127.07Y-57.165
X127.07Y-59.705
X127.07Y-62.245
X127.07Y-64.785
X127.07Y-67.325
X127.07Y-69.865
X127.07Y-72.405
X127.07Y-74.945
X127.07Y-77.485
X127.07Y-80.025
X127.07Y-82.565
X149.93Y-47.005
X149.93Y-49.545
X149.93Y-52.085
X149.93Y-54.625
X149.93Y-57.165
X149.93Y-59.705
X149.93Y-62.245
X149.93Y-64.785
X149.93Y-67.325
X149.93Y-69.865
X149.93Y-72.405
X149.93Y-74.945
X149.93Y-77.485
X149.93Y-80.025
X149.93Y-82.565
T3
X76.92Y-92.5
X78.5Y-100.0
X79.46Y-92.5
X81.04Y-100.0
X82.0Y-92.5
X84.54Y-92.5
X87.08Y-92.5
X89.62Y-92.5
X104.93Y-46.425
X104.93Y-48.965
X104.93Y-51.505
X104.93Y-54.045
X104.93Y-56.585
X104.93Y-59.125
X104.93Y-61.665
X104.93Y-64.205
X104.93Y-66.745
X104.93Y-69.285
X104.93Y-71.825
X104.93Y-74.365
X104.93Y-76.905
X104.93Y-79.445
X104.93Y-81.985
X112.5Y-50.46
X112.5Y-53.0
X112.5Y-55.54
X112.5Y-61.96
X112.5Y-64.5
X112.5Y-67.04
X112.5Y-74.69
X112.5Y-77.23
X112.5Y-79.77
X112.5Y-82.31
X156.5Y-90.38
X156.5Y-92.92
X156.5Y-95.46
X156.5Y-98.0
X156.5Y-100.54
X156.5Y-103.08
X156.5Y-105.62
X156.5Y-108.16
X156.5Y-110.7
X156.5Y-113.24
X156.93Y-46.965
X156.93Y-49.505
X156.93Y-52.045
X156.93Y-54.585
X156.93Y-57.125
X156.93Y-59.665
X156.93Y-62.205
X156.93Y-64.745
X156.93Y-67.285
X156.93Y-69.825
X156.93Y-72.365
X156.93Y-74.905
X156.93Y-77.445
X156.93Y-79.985
X156.93Y-82.525
X164.0Y-60.38
X164.0Y-62.92
X164.0Y-65.46
X164.0Y-68.0
X164.0Y-76.88
X164.0Y-79.42
X164.0Y-81.96
X164.0Y-84.5
X164.0Y-87.04
X164.0Y-89.58
X164.0Y-92.12
X164.0Y-94.66
X164.0Y-97.2
X164.0Y-99.74
T4
X42.5Y-96.0
X47.5Y-96.0
X57.5Y-96.0
X62.5Y-96.0
X106.25Y-107.468
X111.25Y-107.468
T5
X43.31Y-60.115
X43.31Y-62.655
X43.31Y-65.195
X43.31Y-67.735
X43.31Y-70.275
X43.31Y-72.815
X43.31Y-75.355
X43.31Y-77.895
X58.55Y-60.115
X58.55Y-62.655
X58.55Y-65.195
X58.55Y-67.735
X58.55Y-70.275
X58.55Y-72.815
X58.55Y-75.355
X58.55Y-77.895
X124.76Y-92.88
X124.76Y-95.42
X124.76Y-97.96
X124.76Y-100.5
X124.76Y-103.04
X124.76Y-105.58
X124.76Y-108.12
X124.76Y-110.66
X140.0Y-92.88
X140.0Y-95.42
X140.0Y-97.96
X140.0Y-100.5
X140.0Y-103.04
X140.0Y-105.58
X140.0Y-108.12
X140.0Y-110.66
M30
