%TF.GenerationSoftware,KiCad,Pcbnew,10.0.3*%
%TF.CreationDate,2026-05-17T11:33:57-05:00*%
%TF.ProjectId,PCB_robotica,5043425f-726f-4626-9f74-6963612e6b69,rev?*%
%TF.SameCoordinates,Original*%
%TF.FileFunction,Legend,Top*%
%TF.FilePolarity,Positive*%
%FSLAX46Y46*%
G04 Gerber Fmt 4.6, Leading zero omitted, Abs format (unit mm)*
G04 Created by KiCad (PCBNEW 10.0.3) date 2026-05-17 11:33:57*
%MOMM*%
%LPD*%
G01*
G04 APERTURE LIST*
%ADD10C,0.150000*%
%ADD11C,0.120000*%
%ADD12C,0.127000*%
%ADD13C,0.200000*%
G04 APERTURE END LIST*
D10*
X44345238Y-100574819D02*
X44345238Y-101289104D01*
X44345238Y-101289104D02*
X44297619Y-101431961D01*
X44297619Y-101431961D02*
X44202381Y-101527200D01*
X44202381Y-101527200D02*
X44059524Y-101574819D01*
X44059524Y-101574819D02*
X43964286Y-101574819D01*
X44821429Y-101574819D02*
X44821429Y-100574819D01*
X44821429Y-100574819D02*
X45154762Y-101289104D01*
X45154762Y-101289104D02*
X45488095Y-100574819D01*
X45488095Y-100574819D02*
X45488095Y-101574819D01*
X46488095Y-101574819D02*
X45916667Y-101574819D01*
X46202381Y-101574819D02*
X46202381Y-100574819D01*
X46202381Y-100574819D02*
X46107143Y-100717676D01*
X46107143Y-100717676D02*
X46011905Y-100812914D01*
X46011905Y-100812914D02*
X45916667Y-100860533D01*
X65109580Y-50119047D02*
X65157200Y-50166666D01*
X65157200Y-50166666D02*
X65204819Y-50309523D01*
X65204819Y-50309523D02*
X65204819Y-50404761D01*
X65204819Y-50404761D02*
X65157200Y-50547618D01*
X65157200Y-50547618D02*
X65061961Y-50642856D01*
X65061961Y-50642856D02*
X64966723Y-50690475D01*
X64966723Y-50690475D02*
X64776247Y-50738094D01*
X64776247Y-50738094D02*
X64633390Y-50738094D01*
X64633390Y-50738094D02*
X64442914Y-50690475D01*
X64442914Y-50690475D02*
X64347676Y-50642856D01*
X64347676Y-50642856D02*
X64252438Y-50547618D01*
X64252438Y-50547618D02*
X64204819Y-50404761D01*
X64204819Y-50404761D02*
X64204819Y-50309523D01*
X64204819Y-50309523D02*
X64252438Y-50166666D01*
X64252438Y-50166666D02*
X64300057Y-50119047D01*
X64681009Y-49690475D02*
X64681009Y-49357142D01*
X65204819Y-49214285D02*
X65204819Y-49690475D01*
X65204819Y-49690475D02*
X64204819Y-49690475D01*
X64204819Y-49690475D02*
X64204819Y-49214285D01*
X65204819Y-48261904D02*
X65204819Y-48833332D01*
X65204819Y-48547618D02*
X64204819Y-48547618D01*
X64204819Y-48547618D02*
X64347676Y-48642856D01*
X64347676Y-48642856D02*
X64442914Y-48738094D01*
X64442914Y-48738094D02*
X64490533Y-48833332D01*
X110166666Y-59987200D02*
X110309523Y-60034819D01*
X110309523Y-60034819D02*
X110547618Y-60034819D01*
X110547618Y-60034819D02*
X110642856Y-59987200D01*
X110642856Y-59987200D02*
X110690475Y-59939580D01*
X110690475Y-59939580D02*
X110738094Y-59844342D01*
X110738094Y-59844342D02*
X110738094Y-59749104D01*
X110738094Y-59749104D02*
X110690475Y-59653866D01*
X110690475Y-59653866D02*
X110642856Y-59606247D01*
X110642856Y-59606247D02*
X110547618Y-59558628D01*
X110547618Y-59558628D02*
X110357142Y-59511009D01*
X110357142Y-59511009D02*
X110261904Y-59463390D01*
X110261904Y-59463390D02*
X110214285Y-59415771D01*
X110214285Y-59415771D02*
X110166666Y-59320533D01*
X110166666Y-59320533D02*
X110166666Y-59225295D01*
X110166666Y-59225295D02*
X110214285Y-59130057D01*
X110214285Y-59130057D02*
X110261904Y-59082438D01*
X110261904Y-59082438D02*
X110357142Y-59034819D01*
X110357142Y-59034819D02*
X110595237Y-59034819D01*
X110595237Y-59034819D02*
X110738094Y-59082438D01*
X111547618Y-59987200D02*
X111452380Y-60034819D01*
X111452380Y-60034819D02*
X111261904Y-60034819D01*
X111261904Y-60034819D02*
X111166666Y-59987200D01*
X111166666Y-59987200D02*
X111119047Y-59891961D01*
X111119047Y-59891961D02*
X111119047Y-59511009D01*
X111119047Y-59511009D02*
X111166666Y-59415771D01*
X111166666Y-59415771D02*
X111261904Y-59368152D01*
X111261904Y-59368152D02*
X111452380Y-59368152D01*
X111452380Y-59368152D02*
X111547618Y-59415771D01*
X111547618Y-59415771D02*
X111595237Y-59511009D01*
X111595237Y-59511009D02*
X111595237Y-59606247D01*
X111595237Y-59606247D02*
X111119047Y-59701485D01*
X112023809Y-60034819D02*
X112023809Y-59368152D01*
X112023809Y-59558628D02*
X112071428Y-59463390D01*
X112071428Y-59463390D02*
X112119047Y-59415771D01*
X112119047Y-59415771D02*
X112214285Y-59368152D01*
X112214285Y-59368152D02*
X112309523Y-59368152D01*
X112547619Y-59368152D02*
X112785714Y-60034819D01*
X112785714Y-60034819D02*
X113023809Y-59368152D01*
X113547619Y-60034819D02*
X113452381Y-59987200D01*
X113452381Y-59987200D02*
X113404762Y-59939580D01*
X113404762Y-59939580D02*
X113357143Y-59844342D01*
X113357143Y-59844342D02*
X113357143Y-59558628D01*
X113357143Y-59558628D02*
X113404762Y-59463390D01*
X113404762Y-59463390D02*
X113452381Y-59415771D01*
X113452381Y-59415771D02*
X113547619Y-59368152D01*
X113547619Y-59368152D02*
X113690476Y-59368152D01*
X113690476Y-59368152D02*
X113785714Y-59415771D01*
X113785714Y-59415771D02*
X113833333Y-59463390D01*
X113833333Y-59463390D02*
X113880952Y-59558628D01*
X113880952Y-59558628D02*
X113880952Y-59844342D01*
X113880952Y-59844342D02*
X113833333Y-59939580D01*
X113833333Y-59939580D02*
X113785714Y-59987200D01*
X113785714Y-59987200D02*
X113690476Y-60034819D01*
X113690476Y-60034819D02*
X113547619Y-60034819D01*
X114833333Y-60034819D02*
X114261905Y-60034819D01*
X114547619Y-60034819D02*
X114547619Y-59034819D01*
X114547619Y-59034819D02*
X114452381Y-59177676D01*
X114452381Y-59177676D02*
X114357143Y-59272914D01*
X114357143Y-59272914D02*
X114261905Y-59320533D01*
X119739524Y-49349819D02*
X119739524Y-48349819D01*
X119739524Y-48349819D02*
X119977619Y-48349819D01*
X119977619Y-48349819D02*
X120120476Y-48397438D01*
X120120476Y-48397438D02*
X120215714Y-48492676D01*
X120215714Y-48492676D02*
X120263333Y-48587914D01*
X120263333Y-48587914D02*
X120310952Y-48778390D01*
X120310952Y-48778390D02*
X120310952Y-48921247D01*
X120310952Y-48921247D02*
X120263333Y-49111723D01*
X120263333Y-49111723D02*
X120215714Y-49206961D01*
X120215714Y-49206961D02*
X120120476Y-49302200D01*
X120120476Y-49302200D02*
X119977619Y-49349819D01*
X119977619Y-49349819D02*
X119739524Y-49349819D01*
X120739524Y-48826009D02*
X121072857Y-48826009D01*
X121215714Y-49349819D02*
X120739524Y-49349819D01*
X120739524Y-49349819D02*
X120739524Y-48349819D01*
X120739524Y-48349819D02*
X121215714Y-48349819D01*
X121596667Y-48445057D02*
X121644286Y-48397438D01*
X121644286Y-48397438D02*
X121739524Y-48349819D01*
X121739524Y-48349819D02*
X121977619Y-48349819D01*
X121977619Y-48349819D02*
X122072857Y-48397438D01*
X122072857Y-48397438D02*
X122120476Y-48445057D01*
X122120476Y-48445057D02*
X122168095Y-48540295D01*
X122168095Y-48540295D02*
X122168095Y-48635533D01*
X122168095Y-48635533D02*
X122120476Y-48778390D01*
X122120476Y-48778390D02*
X121549048Y-49349819D01*
X121549048Y-49349819D02*
X122168095Y-49349819D01*
X125084895Y-89611619D02*
X125084895Y-90421142D01*
X125084895Y-90421142D02*
X125132514Y-90516380D01*
X125132514Y-90516380D02*
X125180133Y-90564000D01*
X125180133Y-90564000D02*
X125275371Y-90611619D01*
X125275371Y-90611619D02*
X125465847Y-90611619D01*
X125465847Y-90611619D02*
X125561085Y-90564000D01*
X125561085Y-90564000D02*
X125608704Y-90516380D01*
X125608704Y-90516380D02*
X125656323Y-90421142D01*
X125656323Y-90421142D02*
X125656323Y-89611619D01*
X126132514Y-90611619D02*
X126132514Y-89611619D01*
X126132514Y-89611619D02*
X126370609Y-89611619D01*
X126370609Y-89611619D02*
X126513466Y-89659238D01*
X126513466Y-89659238D02*
X126608704Y-89754476D01*
X126608704Y-89754476D02*
X126656323Y-89849714D01*
X126656323Y-89849714D02*
X126703942Y-90040190D01*
X126703942Y-90040190D02*
X126703942Y-90183047D01*
X126703942Y-90183047D02*
X126656323Y-90373523D01*
X126656323Y-90373523D02*
X126608704Y-90468761D01*
X126608704Y-90468761D02*
X126513466Y-90564000D01*
X126513466Y-90564000D02*
X126370609Y-90611619D01*
X126370609Y-90611619D02*
X126132514Y-90611619D01*
X127703942Y-90611619D02*
X127370609Y-90135428D01*
X127132514Y-90611619D02*
X127132514Y-89611619D01*
X127132514Y-89611619D02*
X127513466Y-89611619D01*
X127513466Y-89611619D02*
X127608704Y-89659238D01*
X127608704Y-89659238D02*
X127656323Y-89706857D01*
X127656323Y-89706857D02*
X127703942Y-89802095D01*
X127703942Y-89802095D02*
X127703942Y-89944952D01*
X127703942Y-89944952D02*
X127656323Y-90040190D01*
X127656323Y-90040190D02*
X127608704Y-90087809D01*
X127608704Y-90087809D02*
X127513466Y-90135428D01*
X127513466Y-90135428D02*
X127132514Y-90135428D01*
X128084895Y-89706857D02*
X128132514Y-89659238D01*
X128132514Y-89659238D02*
X128227752Y-89611619D01*
X128227752Y-89611619D02*
X128465847Y-89611619D01*
X128465847Y-89611619D02*
X128561085Y-89659238D01*
X128561085Y-89659238D02*
X128608704Y-89706857D01*
X128608704Y-89706857D02*
X128656323Y-89802095D01*
X128656323Y-89802095D02*
X128656323Y-89897333D01*
X128656323Y-89897333D02*
X128608704Y-90040190D01*
X128608704Y-90040190D02*
X128037276Y-90611619D01*
X128037276Y-90611619D02*
X128656323Y-90611619D01*
X103977619Y-44499819D02*
X103977619Y-43499819D01*
X104358571Y-43499819D02*
X105025237Y-43499819D01*
X105025237Y-43499819D02*
X104358571Y-44499819D01*
X104358571Y-44499819D02*
X105025237Y-44499819D01*
X105929999Y-44499819D02*
X105358571Y-44499819D01*
X105644285Y-44499819D02*
X105644285Y-43499819D01*
X105644285Y-43499819D02*
X105549047Y-43642676D01*
X105549047Y-43642676D02*
X105453809Y-43737914D01*
X105453809Y-43737914D02*
X105358571Y-43785533D01*
X83857143Y-84536009D02*
X84190476Y-84536009D01*
X84333333Y-85059819D02*
X83857143Y-85059819D01*
X83857143Y-85059819D02*
X83857143Y-84059819D01*
X83857143Y-84059819D02*
X84333333Y-84059819D01*
X84714286Y-85012200D02*
X84857143Y-85059819D01*
X84857143Y-85059819D02*
X85095238Y-85059819D01*
X85095238Y-85059819D02*
X85190476Y-85012200D01*
X85190476Y-85012200D02*
X85238095Y-84964580D01*
X85238095Y-84964580D02*
X85285714Y-84869342D01*
X85285714Y-84869342D02*
X85285714Y-84774104D01*
X85285714Y-84774104D02*
X85238095Y-84678866D01*
X85238095Y-84678866D02*
X85190476Y-84631247D01*
X85190476Y-84631247D02*
X85095238Y-84583628D01*
X85095238Y-84583628D02*
X84904762Y-84536009D01*
X84904762Y-84536009D02*
X84809524Y-84488390D01*
X84809524Y-84488390D02*
X84761905Y-84440771D01*
X84761905Y-84440771D02*
X84714286Y-84345533D01*
X84714286Y-84345533D02*
X84714286Y-84250295D01*
X84714286Y-84250295D02*
X84761905Y-84155057D01*
X84761905Y-84155057D02*
X84809524Y-84107438D01*
X84809524Y-84107438D02*
X84904762Y-84059819D01*
X84904762Y-84059819D02*
X85142857Y-84059819D01*
X85142857Y-84059819D02*
X85285714Y-84107438D01*
X85714286Y-85059819D02*
X85714286Y-84059819D01*
X85714286Y-84059819D02*
X86095238Y-84059819D01*
X86095238Y-84059819D02*
X86190476Y-84107438D01*
X86190476Y-84107438D02*
X86238095Y-84155057D01*
X86238095Y-84155057D02*
X86285714Y-84250295D01*
X86285714Y-84250295D02*
X86285714Y-84393152D01*
X86285714Y-84393152D02*
X86238095Y-84488390D01*
X86238095Y-84488390D02*
X86190476Y-84536009D01*
X86190476Y-84536009D02*
X86095238Y-84583628D01*
X86095238Y-84583628D02*
X85714286Y-84583628D01*
X86619048Y-84059819D02*
X87238095Y-84059819D01*
X87238095Y-84059819D02*
X86904762Y-84440771D01*
X86904762Y-84440771D02*
X87047619Y-84440771D01*
X87047619Y-84440771D02*
X87142857Y-84488390D01*
X87142857Y-84488390D02*
X87190476Y-84536009D01*
X87190476Y-84536009D02*
X87238095Y-84631247D01*
X87238095Y-84631247D02*
X87238095Y-84869342D01*
X87238095Y-84869342D02*
X87190476Y-84964580D01*
X87190476Y-84964580D02*
X87142857Y-85012200D01*
X87142857Y-85012200D02*
X87047619Y-85059819D01*
X87047619Y-85059819D02*
X86761905Y-85059819D01*
X86761905Y-85059819D02*
X86666667Y-85012200D01*
X86666667Y-85012200D02*
X86619048Y-84964580D01*
X87619048Y-84155057D02*
X87666667Y-84107438D01*
X87666667Y-84107438D02*
X87761905Y-84059819D01*
X87761905Y-84059819D02*
X88000000Y-84059819D01*
X88000000Y-84059819D02*
X88095238Y-84107438D01*
X88095238Y-84107438D02*
X88142857Y-84155057D01*
X88142857Y-84155057D02*
X88190476Y-84250295D01*
X88190476Y-84250295D02*
X88190476Y-84345533D01*
X88190476Y-84345533D02*
X88142857Y-84488390D01*
X88142857Y-84488390D02*
X87571429Y-85059819D01*
X87571429Y-85059819D02*
X88190476Y-85059819D01*
X111047619Y-85144819D02*
X111047619Y-84144819D01*
X111476190Y-84240057D02*
X111523809Y-84192438D01*
X111523809Y-84192438D02*
X111619047Y-84144819D01*
X111619047Y-84144819D02*
X111857142Y-84144819D01*
X111857142Y-84144819D02*
X111952380Y-84192438D01*
X111952380Y-84192438D02*
X111999999Y-84240057D01*
X111999999Y-84240057D02*
X112047618Y-84335295D01*
X112047618Y-84335295D02*
X112047618Y-84430533D01*
X112047618Y-84430533D02*
X111999999Y-84573390D01*
X111999999Y-84573390D02*
X111428571Y-85144819D01*
X111428571Y-85144819D02*
X112047618Y-85144819D01*
X113047618Y-85049580D02*
X112999999Y-85097200D01*
X112999999Y-85097200D02*
X112857142Y-85144819D01*
X112857142Y-85144819D02*
X112761904Y-85144819D01*
X112761904Y-85144819D02*
X112619047Y-85097200D01*
X112619047Y-85097200D02*
X112523809Y-85001961D01*
X112523809Y-85001961D02*
X112476190Y-84906723D01*
X112476190Y-84906723D02*
X112428571Y-84716247D01*
X112428571Y-84716247D02*
X112428571Y-84573390D01*
X112428571Y-84573390D02*
X112476190Y-84382914D01*
X112476190Y-84382914D02*
X112523809Y-84287676D01*
X112523809Y-84287676D02*
X112619047Y-84192438D01*
X112619047Y-84192438D02*
X112761904Y-84144819D01*
X112761904Y-84144819D02*
X112857142Y-84144819D01*
X112857142Y-84144819D02*
X112999999Y-84192438D01*
X112999999Y-84192438D02*
X113047618Y-84240057D01*
X113999999Y-85144819D02*
X113428571Y-85144819D01*
X113714285Y-85144819D02*
X113714285Y-84144819D01*
X113714285Y-84144819D02*
X113619047Y-84287676D01*
X113619047Y-84287676D02*
X113523809Y-84382914D01*
X113523809Y-84382914D02*
X113428571Y-84430533D01*
X66739524Y-49849819D02*
X66739524Y-48849819D01*
X66739524Y-48849819D02*
X66977619Y-48849819D01*
X66977619Y-48849819D02*
X67120476Y-48897438D01*
X67120476Y-48897438D02*
X67215714Y-48992676D01*
X67215714Y-48992676D02*
X67263333Y-49087914D01*
X67263333Y-49087914D02*
X67310952Y-49278390D01*
X67310952Y-49278390D02*
X67310952Y-49421247D01*
X67310952Y-49421247D02*
X67263333Y-49611723D01*
X67263333Y-49611723D02*
X67215714Y-49706961D01*
X67215714Y-49706961D02*
X67120476Y-49802200D01*
X67120476Y-49802200D02*
X66977619Y-49849819D01*
X66977619Y-49849819D02*
X66739524Y-49849819D01*
X67739524Y-49326009D02*
X68072857Y-49326009D01*
X68215714Y-49849819D02*
X67739524Y-49849819D01*
X67739524Y-49849819D02*
X67739524Y-48849819D01*
X67739524Y-48849819D02*
X68215714Y-48849819D01*
X69168095Y-49849819D02*
X68596667Y-49849819D01*
X68882381Y-49849819D02*
X68882381Y-48849819D01*
X68882381Y-48849819D02*
X68787143Y-48992676D01*
X68787143Y-48992676D02*
X68691905Y-49087914D01*
X68691905Y-49087914D02*
X68596667Y-49135533D01*
X107595238Y-101802319D02*
X107595238Y-102516604D01*
X107595238Y-102516604D02*
X107547619Y-102659461D01*
X107547619Y-102659461D02*
X107452381Y-102754700D01*
X107452381Y-102754700D02*
X107309524Y-102802319D01*
X107309524Y-102802319D02*
X107214286Y-102802319D01*
X108071429Y-102802319D02*
X108071429Y-101802319D01*
X108071429Y-101802319D02*
X108404762Y-102516604D01*
X108404762Y-102516604D02*
X108738095Y-101802319D01*
X108738095Y-101802319D02*
X108738095Y-102802319D01*
X109119048Y-101802319D02*
X109738095Y-101802319D01*
X109738095Y-101802319D02*
X109404762Y-102183271D01*
X109404762Y-102183271D02*
X109547619Y-102183271D01*
X109547619Y-102183271D02*
X109642857Y-102230890D01*
X109642857Y-102230890D02*
X109690476Y-102278509D01*
X109690476Y-102278509D02*
X109738095Y-102373747D01*
X109738095Y-102373747D02*
X109738095Y-102611842D01*
X109738095Y-102611842D02*
X109690476Y-102707080D01*
X109690476Y-102707080D02*
X109642857Y-102754700D01*
X109642857Y-102754700D02*
X109547619Y-102802319D01*
X109547619Y-102802319D02*
X109261905Y-102802319D01*
X109261905Y-102802319D02*
X109166667Y-102754700D01*
X109166667Y-102754700D02*
X109119048Y-102707080D01*
X44158705Y-57846619D02*
X44158705Y-56846619D01*
X44158705Y-56846619D02*
X44396800Y-56846619D01*
X44396800Y-56846619D02*
X44539657Y-56894238D01*
X44539657Y-56894238D02*
X44634895Y-56989476D01*
X44634895Y-56989476D02*
X44682514Y-57084714D01*
X44682514Y-57084714D02*
X44730133Y-57275190D01*
X44730133Y-57275190D02*
X44730133Y-57418047D01*
X44730133Y-57418047D02*
X44682514Y-57608523D01*
X44682514Y-57608523D02*
X44634895Y-57703761D01*
X44634895Y-57703761D02*
X44539657Y-57799000D01*
X44539657Y-57799000D02*
X44396800Y-57846619D01*
X44396800Y-57846619D02*
X44158705Y-57846619D01*
X45730133Y-57846619D02*
X45396800Y-57370428D01*
X45158705Y-57846619D02*
X45158705Y-56846619D01*
X45158705Y-56846619D02*
X45539657Y-56846619D01*
X45539657Y-56846619D02*
X45634895Y-56894238D01*
X45634895Y-56894238D02*
X45682514Y-56941857D01*
X45682514Y-56941857D02*
X45730133Y-57037095D01*
X45730133Y-57037095D02*
X45730133Y-57179952D01*
X45730133Y-57179952D02*
X45682514Y-57275190D01*
X45682514Y-57275190D02*
X45634895Y-57322809D01*
X45634895Y-57322809D02*
X45539657Y-57370428D01*
X45539657Y-57370428D02*
X45158705Y-57370428D01*
X46682514Y-57846619D02*
X46111086Y-57846619D01*
X46396800Y-57846619D02*
X46396800Y-56846619D01*
X46396800Y-56846619D02*
X46301562Y-56989476D01*
X46301562Y-56989476D02*
X46206324Y-57084714D01*
X46206324Y-57084714D02*
X46111086Y-57132333D01*
X160952381Y-101964819D02*
X161285714Y-102964819D01*
X161285714Y-102964819D02*
X161619047Y-101964819D01*
X161952381Y-102583866D02*
X162714286Y-102583866D01*
X162333333Y-102964819D02*
X162333333Y-102202914D01*
X163095238Y-101964819D02*
X163714285Y-101964819D01*
X163714285Y-101964819D02*
X163380952Y-102345771D01*
X163380952Y-102345771D02*
X163523809Y-102345771D01*
X163523809Y-102345771D02*
X163619047Y-102393390D01*
X163619047Y-102393390D02*
X163666666Y-102441009D01*
X163666666Y-102441009D02*
X163714285Y-102536247D01*
X163714285Y-102536247D02*
X163714285Y-102774342D01*
X163714285Y-102774342D02*
X163666666Y-102869580D01*
X163666666Y-102869580D02*
X163619047Y-102917200D01*
X163619047Y-102917200D02*
X163523809Y-102964819D01*
X163523809Y-102964819D02*
X163238095Y-102964819D01*
X163238095Y-102964819D02*
X163142857Y-102917200D01*
X163142857Y-102917200D02*
X163095238Y-102869580D01*
X164142857Y-102869580D02*
X164190476Y-102917200D01*
X164190476Y-102917200D02*
X164142857Y-102964819D01*
X164142857Y-102964819D02*
X164095238Y-102917200D01*
X164095238Y-102917200D02*
X164142857Y-102869580D01*
X164142857Y-102869580D02*
X164142857Y-102964819D01*
X164523809Y-101964819D02*
X165142856Y-101964819D01*
X165142856Y-101964819D02*
X164809523Y-102345771D01*
X164809523Y-102345771D02*
X164952380Y-102345771D01*
X164952380Y-102345771D02*
X165047618Y-102393390D01*
X165047618Y-102393390D02*
X165095237Y-102441009D01*
X165095237Y-102441009D02*
X165142856Y-102536247D01*
X165142856Y-102536247D02*
X165142856Y-102774342D01*
X165142856Y-102774342D02*
X165095237Y-102869580D01*
X165095237Y-102869580D02*
X165047618Y-102917200D01*
X165047618Y-102917200D02*
X164952380Y-102964819D01*
X164952380Y-102964819D02*
X164666666Y-102964819D01*
X164666666Y-102964819D02*
X164571428Y-102917200D01*
X164571428Y-102917200D02*
X164523809Y-102869580D01*
X165428571Y-101964819D02*
X165761904Y-102964819D01*
X165761904Y-102964819D02*
X166095237Y-101964819D01*
X166952380Y-102964819D02*
X166380952Y-102964819D01*
X166666666Y-102964819D02*
X166666666Y-101964819D01*
X166666666Y-101964819D02*
X166571428Y-102107676D01*
X166571428Y-102107676D02*
X166476190Y-102202914D01*
X166476190Y-102202914D02*
X166380952Y-102250533D01*
X136357143Y-85036009D02*
X136690476Y-85036009D01*
X136833333Y-85559819D02*
X136357143Y-85559819D01*
X136357143Y-85559819D02*
X136357143Y-84559819D01*
X136357143Y-84559819D02*
X136833333Y-84559819D01*
X137214286Y-85512200D02*
X137357143Y-85559819D01*
X137357143Y-85559819D02*
X137595238Y-85559819D01*
X137595238Y-85559819D02*
X137690476Y-85512200D01*
X137690476Y-85512200D02*
X137738095Y-85464580D01*
X137738095Y-85464580D02*
X137785714Y-85369342D01*
X137785714Y-85369342D02*
X137785714Y-85274104D01*
X137785714Y-85274104D02*
X137738095Y-85178866D01*
X137738095Y-85178866D02*
X137690476Y-85131247D01*
X137690476Y-85131247D02*
X137595238Y-85083628D01*
X137595238Y-85083628D02*
X137404762Y-85036009D01*
X137404762Y-85036009D02*
X137309524Y-84988390D01*
X137309524Y-84988390D02*
X137261905Y-84940771D01*
X137261905Y-84940771D02*
X137214286Y-84845533D01*
X137214286Y-84845533D02*
X137214286Y-84750295D01*
X137214286Y-84750295D02*
X137261905Y-84655057D01*
X137261905Y-84655057D02*
X137309524Y-84607438D01*
X137309524Y-84607438D02*
X137404762Y-84559819D01*
X137404762Y-84559819D02*
X137642857Y-84559819D01*
X137642857Y-84559819D02*
X137785714Y-84607438D01*
X138214286Y-85559819D02*
X138214286Y-84559819D01*
X138214286Y-84559819D02*
X138595238Y-84559819D01*
X138595238Y-84559819D02*
X138690476Y-84607438D01*
X138690476Y-84607438D02*
X138738095Y-84655057D01*
X138738095Y-84655057D02*
X138785714Y-84750295D01*
X138785714Y-84750295D02*
X138785714Y-84893152D01*
X138785714Y-84893152D02*
X138738095Y-84988390D01*
X138738095Y-84988390D02*
X138690476Y-85036009D01*
X138690476Y-85036009D02*
X138595238Y-85083628D01*
X138595238Y-85083628D02*
X138214286Y-85083628D01*
X139119048Y-84559819D02*
X139738095Y-84559819D01*
X139738095Y-84559819D02*
X139404762Y-84940771D01*
X139404762Y-84940771D02*
X139547619Y-84940771D01*
X139547619Y-84940771D02*
X139642857Y-84988390D01*
X139642857Y-84988390D02*
X139690476Y-85036009D01*
X139690476Y-85036009D02*
X139738095Y-85131247D01*
X139738095Y-85131247D02*
X139738095Y-85369342D01*
X139738095Y-85369342D02*
X139690476Y-85464580D01*
X139690476Y-85464580D02*
X139642857Y-85512200D01*
X139642857Y-85512200D02*
X139547619Y-85559819D01*
X139547619Y-85559819D02*
X139261905Y-85559819D01*
X139261905Y-85559819D02*
X139166667Y-85512200D01*
X139166667Y-85512200D02*
X139119048Y-85464580D01*
X140071429Y-84559819D02*
X140690476Y-84559819D01*
X140690476Y-84559819D02*
X140357143Y-84940771D01*
X140357143Y-84940771D02*
X140500000Y-84940771D01*
X140500000Y-84940771D02*
X140595238Y-84988390D01*
X140595238Y-84988390D02*
X140642857Y-85036009D01*
X140642857Y-85036009D02*
X140690476Y-85131247D01*
X140690476Y-85131247D02*
X140690476Y-85369342D01*
X140690476Y-85369342D02*
X140642857Y-85464580D01*
X140642857Y-85464580D02*
X140595238Y-85512200D01*
X140595238Y-85512200D02*
X140500000Y-85559819D01*
X140500000Y-85559819D02*
X140214286Y-85559819D01*
X140214286Y-85559819D02*
X140119048Y-85512200D01*
X140119048Y-85512200D02*
X140071429Y-85464580D01*
X116859580Y-95307733D02*
X116907200Y-95355352D01*
X116907200Y-95355352D02*
X116954819Y-95498209D01*
X116954819Y-95498209D02*
X116954819Y-95593447D01*
X116954819Y-95593447D02*
X116907200Y-95736304D01*
X116907200Y-95736304D02*
X116811961Y-95831542D01*
X116811961Y-95831542D02*
X116716723Y-95879161D01*
X116716723Y-95879161D02*
X116526247Y-95926780D01*
X116526247Y-95926780D02*
X116383390Y-95926780D01*
X116383390Y-95926780D02*
X116192914Y-95879161D01*
X116192914Y-95879161D02*
X116097676Y-95831542D01*
X116097676Y-95831542D02*
X116002438Y-95736304D01*
X116002438Y-95736304D02*
X115954819Y-95593447D01*
X115954819Y-95593447D02*
X115954819Y-95498209D01*
X115954819Y-95498209D02*
X116002438Y-95355352D01*
X116002438Y-95355352D02*
X116050057Y-95307733D01*
X116954819Y-94879161D02*
X115954819Y-94879161D01*
X115954819Y-94879161D02*
X115954819Y-94641066D01*
X115954819Y-94641066D02*
X116002438Y-94498209D01*
X116002438Y-94498209D02*
X116097676Y-94402971D01*
X116097676Y-94402971D02*
X116192914Y-94355352D01*
X116192914Y-94355352D02*
X116383390Y-94307733D01*
X116383390Y-94307733D02*
X116526247Y-94307733D01*
X116526247Y-94307733D02*
X116716723Y-94355352D01*
X116716723Y-94355352D02*
X116811961Y-94402971D01*
X116811961Y-94402971D02*
X116907200Y-94498209D01*
X116907200Y-94498209D02*
X116954819Y-94641066D01*
X116954819Y-94641066D02*
X116954819Y-94879161D01*
X116050057Y-93926780D02*
X116002438Y-93879161D01*
X116002438Y-93879161D02*
X115954819Y-93783923D01*
X115954819Y-93783923D02*
X115954819Y-93545828D01*
X115954819Y-93545828D02*
X116002438Y-93450590D01*
X116002438Y-93450590D02*
X116050057Y-93402971D01*
X116050057Y-93402971D02*
X116145295Y-93355352D01*
X116145295Y-93355352D02*
X116240533Y-93355352D01*
X116240533Y-93355352D02*
X116383390Y-93402971D01*
X116383390Y-93402971D02*
X116954819Y-93974399D01*
X116954819Y-93974399D02*
X116954819Y-93355352D01*
X42333333Y-50359580D02*
X42285714Y-50407200D01*
X42285714Y-50407200D02*
X42142857Y-50454819D01*
X42142857Y-50454819D02*
X42047619Y-50454819D01*
X42047619Y-50454819D02*
X41904762Y-50407200D01*
X41904762Y-50407200D02*
X41809524Y-50311961D01*
X41809524Y-50311961D02*
X41761905Y-50216723D01*
X41761905Y-50216723D02*
X41714286Y-50026247D01*
X41714286Y-50026247D02*
X41714286Y-49883390D01*
X41714286Y-49883390D02*
X41761905Y-49692914D01*
X41761905Y-49692914D02*
X41809524Y-49597676D01*
X41809524Y-49597676D02*
X41904762Y-49502438D01*
X41904762Y-49502438D02*
X42047619Y-49454819D01*
X42047619Y-49454819D02*
X42142857Y-49454819D01*
X42142857Y-49454819D02*
X42285714Y-49502438D01*
X42285714Y-49502438D02*
X42333333Y-49550057D01*
X42761905Y-50454819D02*
X42761905Y-49454819D01*
X42761905Y-49454819D02*
X43000000Y-49454819D01*
X43000000Y-49454819D02*
X43142857Y-49502438D01*
X43142857Y-49502438D02*
X43238095Y-49597676D01*
X43238095Y-49597676D02*
X43285714Y-49692914D01*
X43285714Y-49692914D02*
X43333333Y-49883390D01*
X43333333Y-49883390D02*
X43333333Y-50026247D01*
X43333333Y-50026247D02*
X43285714Y-50216723D01*
X43285714Y-50216723D02*
X43238095Y-50311961D01*
X43238095Y-50311961D02*
X43142857Y-50407200D01*
X43142857Y-50407200D02*
X43000000Y-50454819D01*
X43000000Y-50454819D02*
X42761905Y-50454819D01*
X44285714Y-50454819D02*
X43714286Y-50454819D01*
X44000000Y-50454819D02*
X44000000Y-49454819D01*
X44000000Y-49454819D02*
X43904762Y-49597676D01*
X43904762Y-49597676D02*
X43809524Y-49692914D01*
X43809524Y-49692914D02*
X43714286Y-49740533D01*
X76574819Y-101095238D02*
X76574819Y-101666666D01*
X76574819Y-101380952D02*
X75574819Y-101380952D01*
X75574819Y-101380952D02*
X75717676Y-101476190D01*
X75717676Y-101476190D02*
X75812914Y-101571428D01*
X75812914Y-101571428D02*
X75860533Y-101666666D01*
X75670057Y-100714285D02*
X75622438Y-100666666D01*
X75622438Y-100666666D02*
X75574819Y-100571428D01*
X75574819Y-100571428D02*
X75574819Y-100333333D01*
X75574819Y-100333333D02*
X75622438Y-100238095D01*
X75622438Y-100238095D02*
X75670057Y-100190476D01*
X75670057Y-100190476D02*
X75765295Y-100142857D01*
X75765295Y-100142857D02*
X75860533Y-100142857D01*
X75860533Y-100142857D02*
X76003390Y-100190476D01*
X76003390Y-100190476D02*
X76574819Y-100761904D01*
X76574819Y-100761904D02*
X76574819Y-100142857D01*
X75574819Y-99857142D02*
X76574819Y-99523809D01*
X76574819Y-99523809D02*
X75574819Y-99190476D01*
X76574819Y-98333333D02*
X76574819Y-98904761D01*
X76574819Y-98619047D02*
X75574819Y-98619047D01*
X75574819Y-98619047D02*
X75717676Y-98714285D01*
X75717676Y-98714285D02*
X75812914Y-98809523D01*
X75812914Y-98809523D02*
X75860533Y-98904761D01*
X115880952Y-35359580D02*
X115833333Y-35407200D01*
X115833333Y-35407200D02*
X115690476Y-35454819D01*
X115690476Y-35454819D02*
X115595238Y-35454819D01*
X115595238Y-35454819D02*
X115452381Y-35407200D01*
X115452381Y-35407200D02*
X115357143Y-35311961D01*
X115357143Y-35311961D02*
X115309524Y-35216723D01*
X115309524Y-35216723D02*
X115261905Y-35026247D01*
X115261905Y-35026247D02*
X115261905Y-34883390D01*
X115261905Y-34883390D02*
X115309524Y-34692914D01*
X115309524Y-34692914D02*
X115357143Y-34597676D01*
X115357143Y-34597676D02*
X115452381Y-34502438D01*
X115452381Y-34502438D02*
X115595238Y-34454819D01*
X115595238Y-34454819D02*
X115690476Y-34454819D01*
X115690476Y-34454819D02*
X115833333Y-34502438D01*
X115833333Y-34502438D02*
X115880952Y-34550057D01*
X116309524Y-34931009D02*
X116642857Y-34931009D01*
X116785714Y-35454819D02*
X116309524Y-35454819D01*
X116309524Y-35454819D02*
X116309524Y-34454819D01*
X116309524Y-34454819D02*
X116785714Y-34454819D01*
X117166667Y-34550057D02*
X117214286Y-34502438D01*
X117214286Y-34502438D02*
X117309524Y-34454819D01*
X117309524Y-34454819D02*
X117547619Y-34454819D01*
X117547619Y-34454819D02*
X117642857Y-34502438D01*
X117642857Y-34502438D02*
X117690476Y-34550057D01*
X117690476Y-34550057D02*
X117738095Y-34645295D01*
X117738095Y-34645295D02*
X117738095Y-34740533D01*
X117738095Y-34740533D02*
X117690476Y-34883390D01*
X117690476Y-34883390D02*
X117119048Y-35454819D01*
X117119048Y-35454819D02*
X117738095Y-35454819D01*
X162547619Y-70834819D02*
X162547619Y-69834819D01*
X162976190Y-69930057D02*
X163023809Y-69882438D01*
X163023809Y-69882438D02*
X163119047Y-69834819D01*
X163119047Y-69834819D02*
X163357142Y-69834819D01*
X163357142Y-69834819D02*
X163452380Y-69882438D01*
X163452380Y-69882438D02*
X163499999Y-69930057D01*
X163499999Y-69930057D02*
X163547618Y-70025295D01*
X163547618Y-70025295D02*
X163547618Y-70120533D01*
X163547618Y-70120533D02*
X163499999Y-70263390D01*
X163499999Y-70263390D02*
X162928571Y-70834819D01*
X162928571Y-70834819D02*
X163547618Y-70834819D01*
X164547618Y-70739580D02*
X164499999Y-70787200D01*
X164499999Y-70787200D02*
X164357142Y-70834819D01*
X164357142Y-70834819D02*
X164261904Y-70834819D01*
X164261904Y-70834819D02*
X164119047Y-70787200D01*
X164119047Y-70787200D02*
X164023809Y-70691961D01*
X164023809Y-70691961D02*
X163976190Y-70596723D01*
X163976190Y-70596723D02*
X163928571Y-70406247D01*
X163928571Y-70406247D02*
X163928571Y-70263390D01*
X163928571Y-70263390D02*
X163976190Y-70072914D01*
X163976190Y-70072914D02*
X164023809Y-69977676D01*
X164023809Y-69977676D02*
X164119047Y-69882438D01*
X164119047Y-69882438D02*
X164261904Y-69834819D01*
X164261904Y-69834819D02*
X164357142Y-69834819D01*
X164357142Y-69834819D02*
X164499999Y-69882438D01*
X164499999Y-69882438D02*
X164547618Y-69930057D01*
X164928571Y-69930057D02*
X164976190Y-69882438D01*
X164976190Y-69882438D02*
X165071428Y-69834819D01*
X165071428Y-69834819D02*
X165309523Y-69834819D01*
X165309523Y-69834819D02*
X165404761Y-69882438D01*
X165404761Y-69882438D02*
X165452380Y-69930057D01*
X165452380Y-69930057D02*
X165499999Y-70025295D01*
X165499999Y-70025295D02*
X165499999Y-70120533D01*
X165499999Y-70120533D02*
X165452380Y-70263390D01*
X165452380Y-70263390D02*
X164880952Y-70834819D01*
X164880952Y-70834819D02*
X165499999Y-70834819D01*
X74471009Y-96119047D02*
X74471009Y-95785714D01*
X74994819Y-95642857D02*
X74994819Y-96119047D01*
X74994819Y-96119047D02*
X73994819Y-96119047D01*
X73994819Y-96119047D02*
X73994819Y-95642857D01*
X74328152Y-95214285D02*
X74994819Y-95214285D01*
X74423390Y-95214285D02*
X74375771Y-95166666D01*
X74375771Y-95166666D02*
X74328152Y-95071428D01*
X74328152Y-95071428D02*
X74328152Y-94928571D01*
X74328152Y-94928571D02*
X74375771Y-94833333D01*
X74375771Y-94833333D02*
X74471009Y-94785714D01*
X74471009Y-94785714D02*
X74994819Y-94785714D01*
X74947200Y-93880952D02*
X74994819Y-93976190D01*
X74994819Y-93976190D02*
X74994819Y-94166666D01*
X74994819Y-94166666D02*
X74947200Y-94261904D01*
X74947200Y-94261904D02*
X74899580Y-94309523D01*
X74899580Y-94309523D02*
X74804342Y-94357142D01*
X74804342Y-94357142D02*
X74518628Y-94357142D01*
X74518628Y-94357142D02*
X74423390Y-94309523D01*
X74423390Y-94309523D02*
X74375771Y-94261904D01*
X74375771Y-94261904D02*
X74328152Y-94166666D01*
X74328152Y-94166666D02*
X74328152Y-93976190D01*
X74328152Y-93976190D02*
X74375771Y-93880952D01*
X74994819Y-93309523D02*
X74947200Y-93404761D01*
X74947200Y-93404761D02*
X74899580Y-93452380D01*
X74899580Y-93452380D02*
X74804342Y-93499999D01*
X74804342Y-93499999D02*
X74518628Y-93499999D01*
X74518628Y-93499999D02*
X74423390Y-93452380D01*
X74423390Y-93452380D02*
X74375771Y-93404761D01*
X74375771Y-93404761D02*
X74328152Y-93309523D01*
X74328152Y-93309523D02*
X74328152Y-93166666D01*
X74328152Y-93166666D02*
X74375771Y-93071428D01*
X74375771Y-93071428D02*
X74423390Y-93023809D01*
X74423390Y-93023809D02*
X74518628Y-92976190D01*
X74518628Y-92976190D02*
X74804342Y-92976190D01*
X74804342Y-92976190D02*
X74899580Y-93023809D01*
X74899580Y-93023809D02*
X74947200Y-93071428D01*
X74947200Y-93071428D02*
X74994819Y-93166666D01*
X74994819Y-93166666D02*
X74994819Y-93309523D01*
X74994819Y-92119047D02*
X73994819Y-92119047D01*
X74947200Y-92119047D02*
X74994819Y-92214285D01*
X74994819Y-92214285D02*
X74994819Y-92404761D01*
X74994819Y-92404761D02*
X74947200Y-92499999D01*
X74947200Y-92499999D02*
X74899580Y-92547618D01*
X74899580Y-92547618D02*
X74804342Y-92595237D01*
X74804342Y-92595237D02*
X74518628Y-92595237D01*
X74518628Y-92595237D02*
X74423390Y-92547618D01*
X74423390Y-92547618D02*
X74375771Y-92499999D01*
X74375771Y-92499999D02*
X74328152Y-92404761D01*
X74328152Y-92404761D02*
X74328152Y-92214285D01*
X74328152Y-92214285D02*
X74375771Y-92119047D01*
X74947200Y-91261904D02*
X74994819Y-91357142D01*
X74994819Y-91357142D02*
X74994819Y-91547618D01*
X74994819Y-91547618D02*
X74947200Y-91642856D01*
X74947200Y-91642856D02*
X74851961Y-91690475D01*
X74851961Y-91690475D02*
X74471009Y-91690475D01*
X74471009Y-91690475D02*
X74375771Y-91642856D01*
X74375771Y-91642856D02*
X74328152Y-91547618D01*
X74328152Y-91547618D02*
X74328152Y-91357142D01*
X74328152Y-91357142D02*
X74375771Y-91261904D01*
X74375771Y-91261904D02*
X74471009Y-91214285D01*
X74471009Y-91214285D02*
X74566247Y-91214285D01*
X74566247Y-91214285D02*
X74661485Y-91690475D01*
X74994819Y-90785713D02*
X74328152Y-90785713D01*
X74518628Y-90785713D02*
X74423390Y-90738094D01*
X74423390Y-90738094D02*
X74375771Y-90690475D01*
X74375771Y-90690475D02*
X74328152Y-90595237D01*
X74328152Y-90595237D02*
X74328152Y-90499999D01*
X74947200Y-90214284D02*
X74994819Y-90119046D01*
X74994819Y-90119046D02*
X74994819Y-89928570D01*
X74994819Y-89928570D02*
X74947200Y-89833332D01*
X74947200Y-89833332D02*
X74851961Y-89785713D01*
X74851961Y-89785713D02*
X74804342Y-89785713D01*
X74804342Y-89785713D02*
X74709104Y-89833332D01*
X74709104Y-89833332D02*
X74661485Y-89928570D01*
X74661485Y-89928570D02*
X74661485Y-90071427D01*
X74661485Y-90071427D02*
X74613866Y-90166665D01*
X74613866Y-90166665D02*
X74518628Y-90214284D01*
X74518628Y-90214284D02*
X74471009Y-90214284D01*
X74471009Y-90214284D02*
X74375771Y-90166665D01*
X74375771Y-90166665D02*
X74328152Y-90071427D01*
X74328152Y-90071427D02*
X74328152Y-89928570D01*
X74328152Y-89928570D02*
X74375771Y-89833332D01*
X74994819Y-88833332D02*
X74994819Y-89404760D01*
X74994819Y-89119046D02*
X73994819Y-89119046D01*
X73994819Y-89119046D02*
X74137676Y-89214284D01*
X74137676Y-89214284D02*
X74232914Y-89309522D01*
X74232914Y-89309522D02*
X74280533Y-89404760D01*
X58845238Y-90334819D02*
X58845238Y-91049104D01*
X58845238Y-91049104D02*
X58797619Y-91191961D01*
X58797619Y-91191961D02*
X58702381Y-91287200D01*
X58702381Y-91287200D02*
X58559524Y-91334819D01*
X58559524Y-91334819D02*
X58464286Y-91334819D01*
X59321429Y-91334819D02*
X59321429Y-90334819D01*
X59321429Y-90334819D02*
X59654762Y-91049104D01*
X59654762Y-91049104D02*
X59988095Y-90334819D01*
X59988095Y-90334819D02*
X59988095Y-91334819D01*
X60416667Y-90430057D02*
X60464286Y-90382438D01*
X60464286Y-90382438D02*
X60559524Y-90334819D01*
X60559524Y-90334819D02*
X60797619Y-90334819D01*
X60797619Y-90334819D02*
X60892857Y-90382438D01*
X60892857Y-90382438D02*
X60940476Y-90430057D01*
X60940476Y-90430057D02*
X60988095Y-90525295D01*
X60988095Y-90525295D02*
X60988095Y-90620533D01*
X60988095Y-90620533D02*
X60940476Y-90763390D01*
X60940476Y-90763390D02*
X60369048Y-91334819D01*
X60369048Y-91334819D02*
X60988095Y-91334819D01*
X155261904Y-87502438D02*
X155166666Y-87454819D01*
X155166666Y-87454819D02*
X155023809Y-87454819D01*
X155023809Y-87454819D02*
X154880952Y-87502438D01*
X154880952Y-87502438D02*
X154785714Y-87597676D01*
X154785714Y-87597676D02*
X154738095Y-87692914D01*
X154738095Y-87692914D02*
X154690476Y-87883390D01*
X154690476Y-87883390D02*
X154690476Y-88026247D01*
X154690476Y-88026247D02*
X154738095Y-88216723D01*
X154738095Y-88216723D02*
X154785714Y-88311961D01*
X154785714Y-88311961D02*
X154880952Y-88407200D01*
X154880952Y-88407200D02*
X155023809Y-88454819D01*
X155023809Y-88454819D02*
X155119047Y-88454819D01*
X155119047Y-88454819D02*
X155261904Y-88407200D01*
X155261904Y-88407200D02*
X155309523Y-88359580D01*
X155309523Y-88359580D02*
X155309523Y-88026247D01*
X155309523Y-88026247D02*
X155119047Y-88026247D01*
X155738095Y-88454819D02*
X155738095Y-87454819D01*
X155738095Y-87454819D02*
X156309523Y-88454819D01*
X156309523Y-88454819D02*
X156309523Y-87454819D01*
X156785714Y-88454819D02*
X156785714Y-87454819D01*
X156785714Y-87454819D02*
X157023809Y-87454819D01*
X157023809Y-87454819D02*
X157166666Y-87502438D01*
X157166666Y-87502438D02*
X157261904Y-87597676D01*
X157261904Y-87597676D02*
X157309523Y-87692914D01*
X157309523Y-87692914D02*
X157357142Y-87883390D01*
X157357142Y-87883390D02*
X157357142Y-88026247D01*
X157357142Y-88026247D02*
X157309523Y-88216723D01*
X157309523Y-88216723D02*
X157261904Y-88311961D01*
X157261904Y-88311961D02*
X157166666Y-88407200D01*
X157166666Y-88407200D02*
X157023809Y-88454819D01*
X157023809Y-88454819D02*
X156785714Y-88454819D01*
X158309523Y-88454819D02*
X157738095Y-88454819D01*
X158023809Y-88454819D02*
X158023809Y-87454819D01*
X158023809Y-87454819D02*
X157928571Y-87597676D01*
X157928571Y-87597676D02*
X157833333Y-87692914D01*
X157833333Y-87692914D02*
X157738095Y-87740533D01*
X110000000Y-58374819D02*
X110000000Y-57374819D01*
X110000000Y-57851009D02*
X110571428Y-57851009D01*
X110571428Y-58374819D02*
X110571428Y-57374819D01*
X111000000Y-58089104D02*
X111476190Y-58089104D01*
X110904762Y-58374819D02*
X111238095Y-57374819D01*
X111238095Y-57374819D02*
X111571428Y-58374819D01*
X112380952Y-58374819D02*
X111904762Y-58374819D01*
X111904762Y-58374819D02*
X111904762Y-57374819D01*
X113190476Y-58374819D02*
X112714286Y-58374819D01*
X112714286Y-58374819D02*
X112714286Y-57374819D01*
X113857143Y-57851009D02*
X114000000Y-57898628D01*
X114000000Y-57898628D02*
X114047619Y-57946247D01*
X114047619Y-57946247D02*
X114095238Y-58041485D01*
X114095238Y-58041485D02*
X114095238Y-58184342D01*
X114095238Y-58184342D02*
X114047619Y-58279580D01*
X114047619Y-58279580D02*
X114000000Y-58327200D01*
X114000000Y-58327200D02*
X113904762Y-58374819D01*
X113904762Y-58374819D02*
X113523810Y-58374819D01*
X113523810Y-58374819D02*
X113523810Y-57374819D01*
X113523810Y-57374819D02*
X113857143Y-57374819D01*
X113857143Y-57374819D02*
X113952381Y-57422438D01*
X113952381Y-57422438D02*
X114000000Y-57470057D01*
X114000000Y-57470057D02*
X114047619Y-57565295D01*
X114047619Y-57565295D02*
X114047619Y-57660533D01*
X114047619Y-57660533D02*
X114000000Y-57755771D01*
X114000000Y-57755771D02*
X113952381Y-57803390D01*
X113952381Y-57803390D02*
X113857143Y-57851009D01*
X113857143Y-57851009D02*
X113523810Y-57851009D01*
X115047619Y-58374819D02*
X114476191Y-58374819D01*
X114761905Y-58374819D02*
X114761905Y-57374819D01*
X114761905Y-57374819D02*
X114666667Y-57517676D01*
X114666667Y-57517676D02*
X114571429Y-57612914D01*
X114571429Y-57612914D02*
X114476191Y-57660533D01*
X155977619Y-45039819D02*
X155977619Y-44039819D01*
X156358571Y-44039819D02*
X157025237Y-44039819D01*
X157025237Y-44039819D02*
X156358571Y-45039819D01*
X156358571Y-45039819D02*
X157025237Y-45039819D01*
X157358571Y-44135057D02*
X157406190Y-44087438D01*
X157406190Y-44087438D02*
X157501428Y-44039819D01*
X157501428Y-44039819D02*
X157739523Y-44039819D01*
X157739523Y-44039819D02*
X157834761Y-44087438D01*
X157834761Y-44087438D02*
X157882380Y-44135057D01*
X157882380Y-44135057D02*
X157929999Y-44230295D01*
X157929999Y-44230295D02*
X157929999Y-44325533D01*
X157929999Y-44325533D02*
X157882380Y-44468390D01*
X157882380Y-44468390D02*
X157310952Y-45039819D01*
X157310952Y-45039819D02*
X157929999Y-45039819D01*
%TO.C,JM1*%
D11*
X39880000Y-92080000D02*
X47200000Y-92080000D01*
X39880000Y-100120000D02*
X39880000Y-92080000D01*
X40688000Y-95500000D02*
X39880000Y-95500000D01*
X40688000Y-96500000D02*
X39880000Y-96500000D01*
X41957000Y-94200000D02*
X39880000Y-94200000D01*
X45620000Y-94200000D02*
X43043000Y-94200000D01*
X45620000Y-95500000D02*
X44312000Y-95500000D01*
X45620000Y-96500000D02*
X44312000Y-96500000D01*
X47800000Y-92080000D02*
X50620000Y-92080000D01*
X50620000Y-92080000D02*
X50620000Y-100120000D01*
X50620000Y-94200000D02*
X49380000Y-94200000D01*
X50620000Y-95500000D02*
X49380000Y-95500000D01*
X50620000Y-96500000D02*
X49380000Y-96500000D01*
X50620000Y-100120000D02*
X39880000Y-100120000D01*
X47500000Y-92080000D02*
X47060000Y-91470000D01*
X47940000Y-91470000D01*
X47500000Y-92080000D01*
G36*
X47500000Y-92080000D02*
G01*
X47060000Y-91470000D01*
X47940000Y-91470000D01*
X47500000Y-92080000D01*
G37*
%TO.C,CE1*%
X61265000Y-43752867D02*
X61265000Y-44802867D01*
X61790000Y-44277867D02*
X60740000Y-44277867D01*
X63620000Y-49500000D02*
G75*
G02*
X52880000Y-49500000I-5370000J0D01*
G01*
X52880000Y-49500000D02*
G75*
G02*
X63620000Y-49500000I5370000J0D01*
G01*
%TO.C,Servo1*%
X111120000Y-60580000D02*
X112500000Y-60580000D01*
X111120000Y-61960000D02*
X111120000Y-60580000D01*
X111120000Y-63230000D02*
X111120000Y-68420000D01*
X111120000Y-63230000D02*
X113880000Y-63230000D01*
X111120000Y-68420000D02*
X113880000Y-68420000D01*
X113880000Y-63230000D02*
X113880000Y-68420000D01*
%TO.C,DE2*%
X119820000Y-49895000D02*
X120930000Y-49895000D01*
X119820000Y-51005000D02*
X119820000Y-49895000D01*
X119820000Y-52005000D02*
X119820000Y-80115000D01*
X119820000Y-52005000D02*
X122040000Y-52005000D01*
X119820000Y-80115000D02*
X122040000Y-80115000D01*
X122040000Y-52005000D02*
X122040000Y-80115000D01*
%TO.C,UDR2*%
D12*
X122220000Y-91610000D02*
X122220000Y-111930000D01*
X123490000Y-91610000D02*
X122220000Y-91610000D01*
X123490000Y-111930000D02*
X122220000Y-111930000D01*
X125880000Y-91610000D02*
X138880000Y-91610000D01*
X125880000Y-111930000D02*
X138880000Y-111930000D01*
X141270000Y-91610000D02*
X142540000Y-91610000D01*
X141270000Y-111930000D02*
X142540000Y-111930000D01*
X142540000Y-111930000D02*
X142540000Y-91610000D01*
D13*
X124860000Y-91041800D02*
G75*
G02*
X124660000Y-91041800I-100000J0D01*
G01*
X124660000Y-91041800D02*
G75*
G02*
X124860000Y-91041800I100000J0D01*
G01*
%TO.C,IZ1*%
D11*
X103550000Y-45045000D02*
X104930000Y-45045000D01*
X103550000Y-46425000D02*
X103550000Y-45045000D01*
X103550000Y-47695000D02*
X103550000Y-83365000D01*
X103550000Y-47695000D02*
X106310000Y-47695000D01*
X103550000Y-83365000D02*
X106310000Y-83365000D01*
X106310000Y-47695000D02*
X106310000Y-83365000D01*
%TO.C,ESP32*%
X73300000Y-44825000D02*
X98700000Y-44825000D01*
X73300000Y-83745000D02*
X73300000Y-44825000D01*
X98700000Y-44825000D02*
X98700000Y-83745000D01*
X98700000Y-83745000D02*
X73300000Y-83745000D01*
%TO.C,I2C1*%
X111120000Y-81040000D02*
X111120000Y-73310000D01*
X113880000Y-73310000D02*
X111120000Y-73310000D01*
X113880000Y-81040000D02*
X111120000Y-81040000D01*
X113880000Y-81040000D02*
X113880000Y-73310000D01*
X113880000Y-82310000D02*
X113880000Y-83690000D01*
X113880000Y-83690000D02*
X112500000Y-83690000D01*
%TO.C,DE1*%
X66820000Y-50395000D02*
X67930000Y-50395000D01*
X66820000Y-51505000D02*
X66820000Y-50395000D01*
X66820000Y-52505000D02*
X66820000Y-80615000D01*
X66820000Y-52505000D02*
X69040000Y-52505000D01*
X66820000Y-80615000D02*
X69040000Y-80615000D01*
X69040000Y-52505000D02*
X69040000Y-80615000D01*
%TO.C,JM3*%
X103130000Y-103347500D02*
X113870000Y-103347500D01*
X103130000Y-106967500D02*
X104370000Y-106967500D01*
X103130000Y-107967500D02*
X104370000Y-107967500D01*
X103130000Y-109267500D02*
X104370000Y-109267500D01*
X103130000Y-111387500D02*
X103130000Y-103347500D01*
X105950000Y-111387500D02*
X103130000Y-111387500D01*
X108130000Y-106967500D02*
X109438000Y-106967500D01*
X108130000Y-107967500D02*
X109438000Y-107967500D01*
X108130000Y-109267500D02*
X110707000Y-109267500D01*
X111793000Y-109267500D02*
X113870000Y-109267500D01*
X113062000Y-106967500D02*
X113870000Y-106967500D01*
X113062000Y-107967500D02*
X113870000Y-107967500D01*
X113870000Y-103347500D02*
X113870000Y-111387500D01*
X113870000Y-111387500D02*
X106550000Y-111387500D01*
X106250000Y-111387500D02*
X106690000Y-111997500D01*
X105810000Y-111997500D01*
X106250000Y-111387500D01*
G36*
X106690000Y-111997500D02*
G01*
X105810000Y-111997500D01*
X106250000Y-111387500D01*
X106690000Y-111997500D01*
G37*
%TO.C,DR1*%
D12*
X40770000Y-58845000D02*
X40770000Y-79165000D01*
X42040000Y-58845000D02*
X40770000Y-58845000D01*
X42040000Y-79165000D02*
X40770000Y-79165000D01*
X44430000Y-58845000D02*
X57430000Y-58845000D01*
X44430000Y-79165000D02*
X57430000Y-79165000D01*
X59820000Y-58845000D02*
X61090000Y-58845000D01*
X59820000Y-79165000D02*
X61090000Y-79165000D01*
X61090000Y-79165000D02*
X61090000Y-58845000D01*
D13*
X43410000Y-58276800D02*
G75*
G02*
X43210000Y-58276800I-100000J0D01*
G01*
X43210000Y-58276800D02*
G75*
G02*
X43410000Y-58276800I100000J0D01*
G01*
%TO.C,V+3.3V1*%
D11*
X162670000Y-98470000D02*
X162670000Y-75550000D01*
X162670000Y-101070000D02*
X162670000Y-99740000D01*
X164000000Y-101070000D02*
X162670000Y-101070000D01*
X165330000Y-75550000D02*
X162670000Y-75550000D01*
X165330000Y-98470000D02*
X162670000Y-98470000D01*
X165330000Y-98470000D02*
X165330000Y-75550000D01*
%TO.C,ESP33*%
X125800000Y-45325000D02*
X151200000Y-45325000D01*
X125800000Y-84245000D02*
X125800000Y-45325000D01*
X151200000Y-45325000D02*
X151200000Y-84245000D01*
X151200000Y-84245000D02*
X125800000Y-84245000D01*
%TO.C,CD2*%
X113015000Y-88893934D02*
X113015000Y-89943934D01*
X113540000Y-89418934D02*
X112490000Y-89418934D01*
X115370000Y-94641067D02*
G75*
G02*
X104630000Y-94641067I-5370000J0D01*
G01*
X104630000Y-94641067D02*
G75*
G02*
X115370000Y-94641067I5370000J0D01*
G01*
%TO.C,CD1*%
X48222133Y-47040000D02*
X48222133Y-45990000D01*
X48747133Y-46515000D02*
X47697133Y-46515000D01*
X48370000Y-43500000D02*
G75*
G02*
X37630000Y-43500000I-5370000J0D01*
G01*
X37630000Y-43500000D02*
G75*
G02*
X48370000Y-43500000I5370000J0D01*
G01*
%TO.C,12V1*%
X77120000Y-101380000D02*
X77120000Y-100000000D01*
X78500000Y-101380000D02*
X77120000Y-101380000D01*
X79770000Y-98620000D02*
X82420000Y-98620000D01*
X79770000Y-101380000D02*
X79770000Y-98620000D01*
X79770000Y-101380000D02*
X82420000Y-101380000D01*
X82420000Y-101380000D02*
X82420000Y-98620000D01*
%TO.C,CE2*%
X110752867Y-38485000D02*
X111802867Y-38485000D01*
X111277867Y-37960000D02*
X111277867Y-39010000D01*
X121870000Y-41500000D02*
G75*
G02*
X111130000Y-41500000I-5370000J0D01*
G01*
X111130000Y-41500000D02*
G75*
G02*
X121870000Y-41500000I5370000J0D01*
G01*
%TO.C,I2C2*%
X162620000Y-66730000D02*
X162620000Y-59000000D01*
X165380000Y-59000000D02*
X162620000Y-59000000D01*
X165380000Y-66730000D02*
X162620000Y-66730000D01*
X165380000Y-66730000D02*
X165380000Y-59000000D01*
X165380000Y-68000000D02*
X165380000Y-69380000D01*
X165380000Y-69380000D02*
X164000000Y-69380000D01*
%TO.C,Encoders1*%
X75540000Y-93880000D02*
X75540000Y-92500000D01*
X76920000Y-93880000D02*
X75540000Y-93880000D01*
X78190000Y-91120000D02*
X91000000Y-91120000D01*
X78190000Y-93880000D02*
X78190000Y-91120000D01*
X78190000Y-93880000D02*
X91000000Y-93880000D01*
X91000000Y-93880000D02*
X91000000Y-91120000D01*
%TO.C,JM2*%
X54380000Y-91880000D02*
X65120000Y-91880000D01*
X54380000Y-95500000D02*
X55620000Y-95500000D01*
X54380000Y-96500000D02*
X55620000Y-96500000D01*
X54380000Y-97800000D02*
X55620000Y-97800000D01*
X54380000Y-99920000D02*
X54380000Y-91880000D01*
X57200000Y-99920000D02*
X54380000Y-99920000D01*
X59380000Y-95500000D02*
X60688000Y-95500000D01*
X59380000Y-96500000D02*
X60688000Y-96500000D01*
X59380000Y-97800000D02*
X61957000Y-97800000D01*
X63043000Y-97800000D02*
X65120000Y-97800000D01*
X64312000Y-95500000D02*
X65120000Y-95500000D01*
X64312000Y-96500000D02*
X65120000Y-96500000D01*
X65120000Y-91880000D02*
X65120000Y-99920000D01*
X65120000Y-99920000D02*
X57800000Y-99920000D01*
X57500000Y-99920000D02*
X57940000Y-100530000D01*
X57060000Y-100530000D01*
X57500000Y-99920000D01*
G36*
X57940000Y-100530000D02*
G01*
X57060000Y-100530000D01*
X57500000Y-99920000D01*
X57940000Y-100530000D01*
G37*
%TO.C,GND1*%
X155120000Y-89000000D02*
X156500000Y-89000000D01*
X155120000Y-90380000D02*
X155120000Y-89000000D01*
X155120000Y-91650000D02*
X155120000Y-114620000D01*
X155120000Y-91650000D02*
X157880000Y-91650000D01*
X155120000Y-114620000D02*
X157880000Y-114620000D01*
X157880000Y-91650000D02*
X157880000Y-114620000D01*
%TO.C,HALLB1*%
X111120000Y-54270000D02*
X111120000Y-49080000D01*
X113880000Y-49080000D02*
X111120000Y-49080000D01*
X113880000Y-54270000D02*
X111120000Y-54270000D01*
X113880000Y-54270000D02*
X113880000Y-49080000D01*
X113880000Y-55540000D02*
X113880000Y-56920000D01*
X113880000Y-56920000D02*
X112500000Y-56920000D01*
%TO.C,IZ2*%
X155550000Y-45585000D02*
X156930000Y-45585000D01*
X155550000Y-46965000D02*
X155550000Y-45585000D01*
X155550000Y-48235000D02*
X155550000Y-83905000D01*
X155550000Y-48235000D02*
X158310000Y-48235000D01*
X155550000Y-83905000D02*
X158310000Y-83905000D01*
X158310000Y-48235000D02*
X158310000Y-83905000D01*
%TD*%
M02*
